<?xml version="1.0" encoding="UTF-8" standalone="no"?>
<!-- Created with Inkscape (http://www.inkscape.org/) -->

<svg
   xmlns:dc="http://purl.org/dc/elements/1.1/"
   xmlns:cc="http://creativecommons.org/ns#"
   xmlns:rdf="http://www.w3.org/1999/02/22-rdf-syntax-ns#"
   xmlns:svg="http://www.w3.org/2000/svg"
   xmlns="http://www.w3.org/2000/svg"
   xmlns:sodipodi="http://sodipodi.sourceforge.net/DTD/sodipodi-0.dtd"
   xmlns:inkscape="http://www.inkscape.org/namespaces/inkscape"
   version="1.1"
   id="svg2"
   xml:space="preserve"
   width="700"
   height="700"
   viewBox="0 0 700 700"
   sodipodi:docname="hapvida-logo.svg"
   inkscape:export-filename="G:\Users\suitedoalex\sites\hapvida-logo-0.png"
   inkscape:export-xdpi="561.73999"
   inkscape:export-ydpi="561.73999"
   inkscape:version="0.92.4 (5da689c313, 2019-01-14)"><metadata
     id="metadata8"><rdf:RDF><cc:Work
         rdf:about=""><dc:format>image/svg+xml</dc:format><dc:type
           rdf:resource="http://purl.org/dc/dcmitype/StillImage" /><dc:title></dc:title></cc:Work></rdf:RDF></metadata><defs
     id="defs6"><clipPath
       clipPathUnits="userSpaceOnUse"
       id="clipPath18"><path
         d="M 1.98,790.02 H 612 V 0.03 H 1.98 Z"
         id="path16"
         inkscape:connector-curvature="0" /></clipPath><clipPath
       clipPathUnits="userSpaceOnUse"
       id="clipPath118"><path
         d="M 201.06,596.52 H 411 V 542.64 H 201.06 Z"
         id="path116"
         inkscape:connector-curvature="0" /></clipPath></defs><sodipodi:namedview
     pagecolor="#ffffff"
     bordercolor="#666666"
     borderopacity="1"
     objecttolerance="10"
     gridtolerance="10"
     guidetolerance="10"
     inkscape:pageopacity="0"
     inkscape:pageshadow="2"
     inkscape:window-width="1600"
     inkscape:window-height="837"
     id="namedview4"
     showgrid="false"
     inkscape:zoom="0.4469697"
     inkscape:cx="-0.57426019"
     inkscape:cy="402.65697"
     inkscape:window-x="-8"
     inkscape:window-y="-8"
     inkscape:window-maximized="1"
     inkscape:current-layer="g10" /><g
     id="g10"
     inkscape:groupmode="layer"
     inkscape:label="hapvida-logo"
     transform="matrix(1.3333333,0,0,-1.3333333,0,700)"><g
       id="g24"
       transform="matrix(1.9187515,0,0,1.9187515,-270.76778,340.78219)"
       inkscape:export-filename="G:\Users\suitedoalex\sites\hapvida-logo-4.png"
       inkscape:export-xdpi="75.14151"
       inkscape:export-ydpi="75.14151" /><g
       id="g32"
       transform="matrix(1.9187515,0,0,1.9187515,362.48736,282.63826)"
       inkscape:export-filename="G:\Users\suitedoalex\sites\hapvida-logo-4.png"
       inkscape:export-xdpi="75.14151"
       inkscape:export-ydpi="75.14151"><path
         d="m 0,0 c 0.095,0.569 0.255,1.212 0.225,1.555 -0.027,0.526 -0.132,1.051 -0.387,1.266 -0.486,0.433 -1.236,0.842 -2.317,0.842 -2.458,0 -3.927,-0.197 -3.927,-0.197 l -0.613,-2.67 -0.386,-1.718 c 0,0 1.092,-0.345 3.558,-0.345 2.329,0 3.645,0.324 3.645,0.324 L 0,0"
         style="fill:#2f6abc;fill-opacity:1;fill-rule:nonzero;stroke:none"
         id="path34"
         inkscape:connector-curvature="0" /></g><g
       id="g36"
       transform="matrix(1.9187515,0,0,1.9187515,354.54949,278.47649)"
       inkscape:export-filename="G:\Users\suitedoalex\sites\hapvida-logo-4.png"
       inkscape:export-xdpi="75.14151"
       inkscape:export-ydpi="75.14151"><path
         d="m 0,0 c -2.475,0 -3.68,-0.345 -3.68,-0.345 l -3.033,-13.186 -2.118,-9.19 c 0.777,-0.541 1.717,-0.867 2.724,-0.905 h 0.243 c 1.86,0.019 3.48,1.043 4.347,2.543 0.203,0.353 0.369,0.723 0.48,1.114 0.062,0.17 0.094,0.276 0.094,0.276 L 3.498,-0.345 C 3.498,-0.345 2.285,0 0,0"
         style="fill:#2f6abc;fill-opacity:1;fill-rule:nonzero;stroke:none"
         id="path38"
         inkscape:connector-curvature="0" /></g><g
       id="g40"
       transform="matrix(1.9187515,0,0,1.9187515,227.3804,243.1753)"
       inkscape:export-filename="G:\Users\suitedoalex\sites\hapvida-logo-4.png"
       inkscape:export-xdpi="75.14151"
       inkscape:export-ydpi="75.14151"><path
         d="m 0,0 c -0.102,-0.01 -0.206,-0.01 -0.314,-0.01 -2.524,0 -3.453,1.241 -2.24,6.524 1.257,5.46 2.797,6.746 5.321,6.746 2.054,0 2.939,-1.501 2.519,-3.564 L 4.274,5.281 3.886,3.599 C 3.401,1.638 1.943,0.146 0,0 Z M 10.682,18.125 C 8.395,18.125 7.159,17.59 7.159,17.59 L 6.856,16.289 c -1.171,1.674 -2.641,2.127 -5.351,2.127 -5.413,0 -9.384,-2.456 -11.396,-11.217 -2.048,-8.761 0.747,-12.4 5.983,-12.4 2.356,0 4.16,0.634 5.619,1.655 0.385,0.284 0.418,0.292 0.688,0.507 L 2.103,-4.323 c 0.143,-0.07 0.969,-0.495 1.248,-0.595 0.533,-0.191 1.098,-0.299 1.69,-0.299 0.319,0 0.627,0.035 0.928,0.092 1.482,0.269 2.737,1.173 3.471,2.43 0.241,0.401 0.413,0.833 0.533,1.294 0.015,0.046 0.032,0.119 0.032,0.119 l 4.374,18.883 c 0,0 -1.412,0.524 -3.697,0.524"
         style="fill:#2f6abc;fill-opacity:1;fill-rule:nonzero;stroke:none"
         id="path42"
         inkscape:connector-curvature="0" /></g><g
       id="g44"
       transform="matrix(1.9187515,0,0,1.9187515,281.78084,255.75655)"
       inkscape:export-filename="G:\Users\suitedoalex\sites\hapvida-logo-4.png"
       inkscape:export-xdpi="75.14151"
       inkscape:export-ydpi="75.14151"><path
         d="m 0,0 c -1.302,-5.634 -2.937,-6.665 -5.275,-6.665 -1.978,0 -2.792,1.439 -2.607,3.274 0.025,0.255 0.067,0.507 0.129,0.76 l 1.121,4.856 0.14,0.607 c 0.608,2.28 2.242,3.781 4.298,3.781 C 0.241,6.613 1.259,5.411 0,0 Z m 1.676,11.814 c -2.796,0 -4.944,-0.781 -6.576,-2.192 l 0.328,1.411 c 0,0 -1.266,0.535 -3.55,0.535 -2.296,0 -3.649,-0.524 -3.649,-0.524 l -1.963,-8.54 c 0,0 -0.026,-0.108 -0.064,-0.268 -0.112,-0.488 -0.329,-1.441 -0.329,-1.448 l -0.412,-1.763 -3.765,-16.353 -0.252,-1.105 c 0.145,-0.069 0.97,-0.496 1.249,-0.594 0.526,-0.192 1.098,-0.291 1.696,-0.291 0.313,0 0.62,0.026 0.919,0.081 1.482,0.273 2.736,1.184 3.476,2.434 0.235,0.407 0.414,0.829 0.531,1.301 0.012,0.037 0.032,0.12 0.032,0.12 l 0.352,1.509 0.12,0.532 0.841,3.718 c 0.002,-0.009 0.008,-0.017 0.011,-0.017 0.987,-1.413 2.71,-2.179 5.5,-2.179 5.185,0 9.342,2.623 11.348,11.431 2.059,8.935 -0.788,12.202 -5.843,12.202"
         style="fill:#2f6abc;fill-opacity:1;fill-rule:nonzero;stroke:none"
         id="path46"
         inkscape:connector-curvature="0" /></g><g
       id="g48"
       transform="matrix(1.9187515,0,0,1.9187515,329.93191,277.79533)"
       inkscape:export-filename="G:\Users\suitedoalex\sites\hapvida-logo-4.png"
       inkscape:export-xdpi="75.14151"
       inkscape:export-ydpi="75.14151"><path
         d="m 0,0 -6.991,-17.327 c -0.014,-0.035 -0.052,-0.063 -0.093,-0.063 -0.062,0 -0.109,0.045 -0.109,0.108 h 0.003 -0.003 l -0.345,6.458 -0.858,10.371 c 0,0 -1.137,0.528 -3.515,0.528 -2.25,0 -3.708,-0.528 -3.708,-0.528 l 2.811,-22.383 c 1.773,-0.309 4.087,-0.445 5.94,-0.453 0.31,0.008 0.613,0.019 0.891,0.038 1.253,0.169 2.361,0.794 3.154,1.704 0.059,0.058 0.111,0.131 0.167,0.194 0.967,1.194 1.628,2.524 1.628,2.524 L 6.919,0 C 6.919,0 5.798,0.355 3.641,0.355 1.636,0.355 0,0 0,0"
         style="fill:#2f6abc;fill-opacity:1;fill-rule:nonzero;stroke:none"
         id="path50"
         inkscape:connector-curvature="0" /></g><g
       id="g52"
       transform="matrix(1.9187515,0,0,1.9187515,194.96885,277.84905)"
       inkscape:export-filename="G:\Users\suitedoalex\sites\hapvida-logo-4.png"
       inkscape:export-xdpi="75.14151"
       inkscape:export-ydpi="75.14151"><path
         d="m 0,0 c -2.469,0 -4.827,-0.832 -6.734,-2.207 l 1.092,4.759 v 0.016 l 0.18,0.733 c 0.029,0.099 0.055,0.206 0.072,0.316 0.033,0.182 0.048,0.353 0.048,0.534 0,0.372 -0.065,0.732 -0.185,1.061 -0.428,1.202 -1.558,2.059 -2.894,2.094 h -0.29 C -10.77,7.263 -11.802,6.973 -11.802,6.973 l -0.45,-1.979 -1.199,-5.138 -5.154,-22.295 c 0.183,-0.088 0.958,-0.496 1.227,-0.59 0.395,-0.144 0.805,-0.231 1.236,-0.269 0.018,0 0.039,-0.01 0.055,-0.01 h 0.226 c 0.037,0 0.073,-0.009 0.111,-0.009 h 0.27 c 0.246,0.009 0.483,0.038 0.721,0.086 1.479,0.266 2.735,1.173 3.468,2.42 0.023,0.046 0.045,0.091 0.069,0.136 0.017,0.027 0.032,0.053 0.044,0.089 0.161,0.353 0.293,0.708 0.372,0.916 0.012,0.037 0.028,0.08 0.039,0.124 0.012,0.048 0.023,0.075 0.023,0.075 l 2.132,9.243 0.724,3.156 0.123,0.534 c 1.121,0.777 2.332,1.202 3.503,1.202 2.145,0 2.751,-0.985 2.378,-2.579 L -5.207,-22.42 v -0.019 c 0.16,-0.082 0.959,-0.496 1.229,-0.59 0.396,-0.144 0.815,-0.231 1.244,-0.269 0.206,-0.01 0.423,-0.019 0.655,-0.019 0.245,0.009 0.486,0.038 0.723,0.086 1.479,0.266 2.729,1.173 3.467,2.42 0.027,0.046 0.047,0.091 0.071,0.136 0.196,0.355 0.346,0.732 0.451,1.129 0.018,0.048 0.023,0.075 0.023,0.075 l 2.83,12.253 C 6.414,-3.102 4.766,0 0,0"
         style="fill:#2f6abc;fill-opacity:1;fill-rule:nonzero;stroke:none"
         id="path54"
         inkscape:connector-curvature="0" /></g><g
       id="g56"
       transform="matrix(1.9187515,0,0,1.9187515,390.1078,260.84125)"
       inkscape:export-filename="G:\Users\suitedoalex\sites\hapvida-logo-4.png"
       inkscape:export-xdpi="75.14151"
       inkscape:export-ydpi="75.14151"><path
         d="m 0,0 -0.999,-4.339 -0.254,-1.114 c -0.038,-0.143 -0.085,-0.288 -0.133,-0.432 -0.664,-1.937 -2.103,-3.212 -3.898,-3.332 -0.085,-0.005 -0.173,-0.005 -0.262,-0.005 -2.421,0 -3.453,1.2 -2.192,6.609 1.308,5.616 2.937,6.647 5.269,6.647 2.039,0 2.839,-1.518 2.583,-3.436 C 0.088,0.399 0.05,0.202 0,0 Z M 9.984,14.192 C 9.838,14.597 9.61,14.969 9.32,15.283 8.826,15.811 8.152,16.171 7.39,16.263 7.296,16.278 7.194,16.289 7.091,16.289 H 6.803 C 5.422,16.252 4.505,16.118 4.05,16.029 3.825,15.983 3.714,15.954 3.714,15.954 L 3.258,13.967 1.594,6.993 c -0.985,1.42 -2.71,2.19 -5.504,2.19 -5.179,0 -9.335,-2.616 -11.336,-11.409 -2.053,-8.924 0.791,-12.189 5.829,-12.189 2.278,0 4.122,0.516 5.612,1.474 0.331,0.217 0.654,0.444 0.949,0.696 0.006,0.008 0.015,0.008 0.021,0.02 l -0.302,-1.276 c 0.117,-0.084 0.235,-0.156 0.355,-0.229 0.758,-0.44 1.639,-0.703 2.586,-0.703 1.378,0 2.629,0.553 3.549,1.446 0.039,0.027 0.074,0.066 0.115,0.11 0.036,0.037 0.065,0.073 0.099,0.108 0.25,0.272 0.467,0.57 0.654,0.894 0.21,0.374 0.38,0.77 0.494,1.186 0.009,0.027 0.015,0.035 0.015,0.035 l 0.044,0.19 0.026,0.119 3.235,14.162 0.132,0.572 0.711,3.063 0.786,3.086 c 0,0 0.079,0.279 0.148,0.711 l 0.235,1.026 c 0.032,0.107 0.058,0.216 0.076,0.321 0.032,0.177 0.046,0.357 0.046,0.536 0,0.372 -0.067,0.733 -0.185,1.06"
         style="fill:#2f6abc;fill-opacity:1;fill-rule:nonzero;stroke:none"
         id="path58"
         inkscape:connector-curvature="0" /></g><g
       id="g60"
       transform="matrix(1.9187515,0,0,1.9187515,426.54872,243.1753)"
       inkscape:export-filename="G:\Users\suitedoalex\sites\hapvida-logo-4.png"
       inkscape:export-xdpi="75.14151"
       inkscape:export-ydpi="75.14151"><path
         d="m 0,0 c -0.103,-0.01 -0.209,-0.01 -0.314,-0.01 -2.527,0 -3.452,1.241 -2.241,6.524 1.258,5.46 2.801,6.746 5.322,6.746 2.055,0 2.938,-1.501 2.52,-3.564 L 4.271,5.281 3.884,3.599 C 3.401,1.638 1.943,0.146 0,0 Z M 10.682,18.125 C 8.391,18.125 7.158,17.59 7.158,17.59 L 6.857,16.289 c -1.172,1.674 -2.642,2.127 -5.352,2.127 -5.416,0 -9.384,-2.456 -11.396,-11.217 -2.048,-8.761 0.747,-12.4 5.98,-12.4 2.359,0 4.163,0.634 5.621,1.655 0.39,0.284 0.419,0.292 0.689,0.507 L 2.106,-4.323 c 0.14,-0.07 0.964,-0.495 1.245,-0.595 0.529,-0.191 1.098,-0.299 1.693,-0.299 0.316,0 0.624,0.035 0.922,0.092 1.486,0.269 2.736,1.173 3.475,2.43 0.237,0.401 0.415,0.833 0.533,1.294 0.01,0.046 0.029,0.119 0.029,0.119 l 4.376,18.883 c 0,0 -1.412,0.524 -3.697,0.524"
         style="fill:#2f6abc;fill-opacity:1;fill-rule:nonzero;stroke:none"
         id="path62"
         inkscape:connector-curvature="0" /></g><g
       id="g64"
       transform="matrix(1.9187515,0,0,1.9187515,104.78753,226.46489)"
       inkscape:export-filename="G:\Users\suitedoalex\sites\hapvida-logo-4.png"
       inkscape:export-xdpi="75.14151"
       inkscape:export-ydpi="75.14151"><path
         d="M 0,0 C 0,2.343 2.148,9.5 4.811,9.5 7.464,9.5 9.62,2.343 9.62,0 9.62,-2.36 7.464,-4.276 4.811,-4.276 2.148,-4.276 0,-2.36 0,0"
         style="fill:#fab20b;fill-opacity:1;fill-rule:nonzero;stroke:none"
         id="path66"
         inkscape:connector-curvature="0" /></g><g
       id="g68"
       transform="matrix(1.9187515,0,0,1.9187515,114.02056,306.7397)"
       inkscape:export-filename="G:\Users\suitedoalex\sites\hapvida-logo-4.png"
       inkscape:export-xdpi="75.14151"
       inkscape:export-ydpi="75.14151"><path
         d="m 0,0 c -3.896,0 -7.055,-3.09 -7.055,-6.91 0,-3.804 3.159,-16.213 7.055,-16.213 3.894,0 7.055,12.409 7.055,16.213 C 7.055,-3.09 3.894,0 0,0"
         style="fill:#ef2f2c;fill-opacity:1;fill-rule:nonzero;stroke:none"
         id="path70"
         inkscape:connector-curvature="0" /></g><g
       id="g72"
       transform="matrix(1.9187515,0,0,1.9187515,77.11529,260.73571)"
       inkscape:export-filename="G:\Users\suitedoalex\sites\hapvida-logo-4.png"
       inkscape:export-xdpi="75.14151"
       inkscape:export-ydpi="75.14151"><path
         d="M 0,0 C 3.036,-1.671 13.604,-4.248 15.269,-1.219 16.941,1.81 9.082,9.31 6.036,10.974 2.997,12.643 -0.812,11.532 -2.485,8.503 -4.152,5.465 -3.038,1.659 0,0"
         style="fill:#f1471d;fill-opacity:1;fill-rule:nonzero;stroke:none"
         id="path74"
         inkscape:connector-curvature="0" /></g><g
       id="g76"
       transform="matrix(1.9187515,0,0,1.9187515,155.72846,276.58268)"
       inkscape:export-filename="G:\Users\suitedoalex\sites\hapvida-logo-4.png"
       inkscape:export-xdpi="75.14151"
       inkscape:export-ydpi="75.14151"><path
         d="m 0,0 c -1.672,3.029 -5.48,4.141 -8.52,2.468 -3.043,-1.664 -10.902,-9.159 -9.231,-12.19 1.668,-3.032 12.235,-0.454 15.27,1.22 C 0.553,-6.844 1.67,-3.04 0,0"
         style="fill:#f1471d;fill-opacity:1;fill-rule:nonzero;stroke:none"
         id="path78"
         inkscape:connector-curvature="0" /></g><g
       id="g80"
       transform="matrix(1.9187515,0,0,1.9187515,84.853613,238.78711)"
       inkscape:export-filename="G:\Users\suitedoalex\sites\hapvida-logo-4.png"
       inkscape:export-xdpi="75.14151"
       inkscape:export-ydpi="75.14151"><path
         d="m 0,0 c 0.915,-1.918 3.206,-2.741 5.129,-1.817 1.927,0.901 7.014,5.234 6.093,7.132 C 10.309,7.234 3.741,6.023 1.825,5.128 -0.095,4.207 -0.914,1.919 0,0"
         style="fill:#f47216;fill-opacity:1;fill-rule:nonzero;stroke:none"
         id="path82"
         inkscape:connector-curvature="0" /></g><g
       id="g84"
       transform="matrix(1.9187515,0,0,1.9187515,139.70689,248.62647)"
       inkscape:export-filename="G:\Users\suitedoalex\sites\hapvida-logo-4.png"
       inkscape:export-xdpi="75.14151"
       inkscape:export-ydpi="75.14151"><path
         d="m 0,0 c -1.928,0.894 -8.497,2.115 -9.42,0.187 -0.905,-1.899 4.18,-6.231 6.101,-7.133 1.931,-0.924 4.228,-0.1 5.146,1.818 C 2.738,-3.21 1.913,-0.922 0,0"
         style="fill:#f47216;fill-opacity:1;fill-rule:nonzero;stroke:none"
         id="path86"
         inkscape:connector-curvature="0" /></g></g></svg>